# xmcd
#
# Track frame offsets: 
#        150
#        18386
#        35025
#        52085
#        71323
#        86707
#        103538
#        120432
#        134455
#        150472
#        168226
#        184137
#        203071
#        220991
#        242991
#        262554
#        277799
#        294613
#
# Disc length: 4160 seconds
#
# Revision: 1
# Processed by: cddbd v1.5.2PL0 Copyright (c) Steve Scherf et al.
# Submitted via: ExactAudioCopy v0.95b4
#
DISCID=fb103e12
DTITLE=Various Artist - Κιβωτός Ονείρων CD1
DYEAR=2005
DGENRE=Ελληνικά
TTITLE0=Ελένη Βιτάλη - Κιβωτός
TTITLE1=Κώστας Μακεδώνας - Μόνο μια φορά
TTITLE2=Ελένη Τσαλιγοπούλου - Ξαφνικά
TTITLE3=Αντώνης Βαρδής - Δε θα με ξεχάσεις
TTITLE4=Χάρης and Πάνος Κατσιμίχας - Μη γυρίσεις
TTITLE5=Αρλέτα - Μπαρ το Ναυάγιο
TTITLE6=Σταμάτης Κραουνάκης - Κόκκινα γυαλιά
TTITLE7=Μανώλης Λιδάκης - Ούτε που ρώτησα
TTITLE8=Ορφέας Περίδης - Φωτοβολίδα
TTITLE9=Γλυκερία - Ο Ιούδας φιλούσε υπέροχα
TTITLE10=Ελένη Τσαλιγοπούλου - Παραμιλητό μου
TTITLE11=Πασχάλης Τερζής - Ο δικός μου ο δρόμος
TTITLE12=Αντώνης Βαρδής and Χριστίνα Μαραγκόζη - Θα προχωράμε μαζί
TTITLE13=Μανώλης Μητσιάς - Ερωτικό
TTITLE14=Γλυκερία - Έκλαιγε μαζί μου το φεγγάρι
TTITLE15=Μελίνα Κανά - Πρώτο φιλί
TTITLE16=Μιχάλης Δημητριάδης and Ελένη Τσαλιγοπούλου - Στων αγγέλων τα μ
TTITLE16=πουζούκια
TTITLE17=Ελένη Τσαλιγοπούλου - Σ' αγαπώ γιατί είσαι ωραία 
EXTD=
EXTT0=
EXTT1=
EXTT2=
EXTT3=
EXTT4=
EXTT5=
EXTT6=
EXTT7=
EXTT8=
EXTT9=
EXTT10=
EXTT11=
EXTT12=
EXTT13=
EXTT14=
EXTT15=
EXTT16=
EXTT17=
PLAYORDER=
